<?xml version="1.0" standalone="no"?>
<!DOCTYPE svg PUBLIC "-//W3C//DTD SVG 20010904//EN"
 "http://www.w3.org/TR/2001/REC-SVG-20010904/DTD/svg10.dtd">
<svg version="1.0" xmlns="http://www.w3.org/2000/svg"
 width="400.000000pt" height="238.000000pt" viewBox="0 0 400.000000 238.000000"
 preserveAspectRatio="xMidYMid meet">

<g transform="translate(0.000000,238.000000) scale(0.100000,-0.100000)"
fill="#000000" stroke="none">
<path d="M1810 2353 c-917 -66 -1712 -575 -1765 -1129 -31 -326 261 -607 790
-760 677 -196 1714 -191 2379 11 253 77 441 179 577 315 155 154 206 315 164
515 -30 139 -112 281 -245 419 -331 345 -871 575 -1473 625 -118 10 -319 12
-427 4z m628 -72 c384 -59 748 -195 1027 -382 133 -89 303 -253 370 -357 65
-101 106 -217 112 -317 11 -160 -36 -274 -165 -403 -66 -68 -85 -82 -97 -72
-20 16 -183 48 -289 56 -90 6 -255 -8 -312 -26 -27 -9 -27 -10 7 -5 49 7 230
8 236 1 3 -3 -18 -27 -48 -53 -30 -27 -63 -57 -75 -68 -52 -51 -105 -95 -112
-95 -4 0 -27 27 -52 61 -68 93 -205 219 -239 219 -15 0 -133 -9 -262 -20 -129
-10 -270 -22 -314 -25 -361 -26 -1017 -93 -1029 -106 -6 -5 53 -9 154 -9 l164
0 142 -95 c143 -96 172 -120 160 -132 -9 -9 -350 13 -496 32 -113 15 -331 54
-339 61 -2 2 25 36 60 76 l63 71 -48 -6 c-27 -4 -50 -8 -51 -10 -1 -1 -18 -28
-38 -59 -20 -32 -43 -58 -51 -58 -33 0 -278 86 -356 125 l-85 42 -74 -11 -75
-10 -74 79 c-138 148 -181 234 -189 375 -24 401 437 827 1120 1034 132 40 323
80 457 95 52 6 109 13 125 15 17 2 145 3 285 1 197 -2 285 -8 388 -24z m409
-1519 c117 -101 231 -245 212 -268 -8 -9 -2 -10 23 -4 74 17 156 40 212 60 33
11 61 18 64 16 7 -8 -240 -83 -360 -110 -277 -62 -504 -86 -878 -93 -528 -10
-924 33 -1299 142 -127 37 -296 103 -333 130 -27 20 -31 22 129 -44 139 -58
372 -121 553 -151 286 -46 383 -53 808 -57 l414 -4 -7 33 c-9 45 -91 252 -121
307 -13 24 -22 46 -19 49 6 6 424 49 492 51 38 1 50 -5 110 -57z m-859 -91
c24 -5 49 -17 57 -27 15 -19 20 -90 9 -119 -10 -26 -59 -45 -119 -45 l-55 0 0
93 c0 52 3 97 7 100 8 9 48 8 101 -2z m250 -23 c3 -27 1 -28 -37 -28 -23 0
-41 -4 -41 -10 0 -5 16 -10 35 -10 31 0 35 -3 35 -25 0 -22 -4 -25 -35 -25
-19 0 -35 -4 -35 -10 0 -5 18 -10 40 -10 36 0 40 -2 40 -25 0 -24 -2 -25 -75
-25 l-75 0 0 93 c0 52 3 97 7 101 4 4 37 6 73 4 63 -3 65 -4 68 -30z m1212
-48 c-8 -5 -19 -10 -25 -10 -5 0 -3 5 5 10 8 5 20 10 25 10 6 0 3 -5 -5 -10z
m-50 -20 c-8 -5 -19 -10 -25 -10 -5 0 -3 5 5 10 8 5 20 10 25 10 6 0 3 -5 -5
-10z"/>
<path d="M1080 2133 c-94 -18 -262 -111 -351 -194 -33 -31 -36 -35 -9 -15 156
119 330 194 449 197 29 0 32 2 16 9 -21 9 -64 10 -105 3z"/>
<path d="M1265 2094 c6 -5 26 -23 45 -39 l35 -30 -25 28 c-14 16 -34 33 -45
39 -11 6 -15 6 -10 2z"/>
<path d="M1361 1990 c29 -45 29 -45 29 -34 0 5 -12 23 -26 39 l-26 30 23 -35z"/>
<path d="M1134 1952 c-164 -58 -364 -219 -474 -383 -52 -79 -105 -191 -98
-209 2 -4 64 3 138 15 248 40 228 41 270 -3 81 -86 92 -162 40 -269 -35 -71
-141 -185 -225 -243 l-50 -35 36 -3 c43 -4 113 23 221 84 91 52 119 52 147 3
14 -25 12 -29 -32 -93 -26 -37 -47 -69 -47 -71 0 -3 16 -5 36 -5 29 0 45 8 80
44 l45 44 56 -31 56 -30 371 37 c204 20 387 36 406 36 19 0 45 3 57 6 21 6 21
7 -14 60 l-36 55 48 49 c41 41 56 50 85 50 26 0 31 3 20 10 -8 5 -25 10 -37
10 -41 0 -34 20 27 82 65 64 88 104 71 121 -6 6 -38 -21 -91 -76 -92 -97 -244
-224 -308 -257 -50 -26 -78 -22 -123 18 l-31 27 17 65 c9 36 27 90 40 122 20
49 21 57 8 63 -11 4 -54 -32 -137 -113 -137 -134 -231 -202 -332 -237 -98 -35
-142 -33 -196 8 -65 50 -75 73 -61 151 6 36 23 90 37 121 50 110 193 220 301
233 37 4 52 0 83 -21 48 -32 76 -85 63 -120 -20 -51 -102 -118 -234 -192 -64
-35 -68 -39 -65 -69 3 -26 8 -32 33 -34 80 -9 193 60 338 206 l98 99 -40 26
c-31 21 -41 34 -41 55 0 23 -13 35 -88 83 -48 31 -134 80 -190 108 -64 32
-102 57 -99 64 84 194 102 256 87 306 -8 26 -8 25 -9 -6 -1 -45 -42 -150 -90
-231 -50 -84 -147 -202 -165 -202 -15 0 -126 88 -126 100 0 4 18 27 40 50 23
24 37 47 33 51 -4 4 -52 19 -106 32 -54 14 -102 28 -105 32 -17 17 167 149
257 185 62 24 84 25 102 4 12 -14 14 -14 21 6 18 48 -6 50 -118 12z"/>
<path d="M2163 1855 c0 -33 2 -45 4 -27 2 18 2 45 0 60 -2 15 -4 0 -4 -33z"/>
<path d="M2290 1847 c0 -77 -15 -102 -78 -122 l-47 -15 45 4 c68 7 90 38 90
127 0 38 -2 69 -5 69 -3 0 -5 -28 -5 -63z"/>
<path d="M2481 1889 c-1 -13 -10 -16 -48 -13 l-48 3 45 -8 c47 -9 66 -2 57 21
-4 9 -6 8 -6 -3z"/>
<path d="M1701 1858 c0 -13 3 -17 6 -10 2 6 11 12 19 12 9 0 12 5 9 10 -12 19
-35 10 -34 -12z"/>
<path d="M1922 1868 c-7 -7 -12 -26 -11 -42 l1 -31 9 33 c7 24 15 32 32 32 18
0 19 2 7 10 -19 13 -24 12 -38 -2z"/>
<path d="M2842 1833 c1 -38 2 -41 5 -15 3 18 11 36 19 39 17 6 9 23 -12 23
-10 0 -14 -12 -12 -47z"/>
<path d="M2052 1829 c-3 -61 -25 -88 -87 -104 l-50 -14 42 0 c33 -1 50 5 73
27 29 25 31 31 27 82 -3 54 -3 55 -5 9z"/>
<path d="M2607 1846 c-4 -10 -5 -21 -2 -24 9 -9 17 6 13 25 -3 17 -4 17 -11
-1z"/>
<path d="M1810 1826 c-11 -30 -39 -46 -79 -46 -26 0 -31 -4 -31 -25 0 -20 -5
-25 -25 -25 -14 0 -25 -5 -25 -11 0 -6 12 -9 28 -7 19 2 28 9 30 24 2 16 12
23 41 28 40 6 64 27 75 64 10 30 -2 28 -14 -2z"/>
<path d="M3080 1834 c0 -8 5 -12 10 -9 6 3 10 10 10 16 0 5 -4 9 -10 9 -5 0
-10 -7 -10 -16z"/>
<path d="M2960 1796 c-16 -50 -44 -66 -112 -66 -37 0 -58 -4 -58 -11 0 -8 20
-10 66 -6 74 6 108 28 118 79 9 44 0 46 -14 4z"/>
<path d="M415 1781 c-29 -12 -164 -157 -208 -223 -147 -222 -166 -436 -57
-625 28 -48 34 -53 66 -53 l35 0 -35 43 c-19 24 -50 74 -68 113 -29 62 -33 78
-33 159 1 90 14 156 37 187 12 15 21 15 118 -11 58 -16 112 -31 120 -35 13 -5
15 6 15 71 0 68 4 87 35 153 19 41 58 107 87 147 l52 73 -59 0 c-32 0 -64 2
-72 4 -7 3 -22 1 -33 -3z"/>
<path d="M2485 1770 c-7 -24 -29 -37 -82 -49 l-38 -9 43 -1 c33 -1 49 5 67 24
14 13 25 31 25 40 0 21 -7 19 -15 -5z"/>
<path d="M2583 1750 c-3 -13 -14 -20 -29 -20 -13 0 -24 -4 -24 -10 0 -18 40
-11 57 10 10 11 25 20 35 20 10 0 18 5 18 10 0 6 -12 10 -26 10 -17 0 -28 -6
-31 -20z"/>
<path d="M3057 1750 c-3 -14 -14 -20 -32 -20 -15 0 -24 -4 -20 -10 10 -17 44
-11 57 10 7 11 23 20 35 20 13 0 23 5 23 10 0 6 -13 10 -29 10 -20 0 -30 -6
-34 -20z"/>
<path d="M2675 1720 c3 -5 17 -10 30 -10 13 0 27 5 30 10 4 6 -8 10 -30 10
-22 0 -34 -4 -30 -10z"/>
<path d="M3155 1720 c3 -5 15 -10 25 -10 10 0 22 5 25 10 4 6 -7 10 -25 10
-18 0 -29 -4 -25 -10z"/>
<path d="M3603 1574 c22 -25 26 -36 21 -63 -4 -18 -1 -77 6 -131 11 -86 11
-104 -3 -146 -9 -27 -15 -50 -13 -51 1 -1 21 15 44 35 42 37 42 37 31 82 -5
24 -14 84 -18 133 -9 94 -23 125 -71 155 -24 15 -24 15 3 -14z"/>
<path d="M2340 1487 c0 -8 11 -19 25 -25 38 -18 41 -15 15 13 -26 28 -40 32
-40 12z"/>
<path d="M1850 1459 c0 -18 8 -28 32 -37 l31 -11 -29 32 c-16 17 -30 34 -31
36 -2 2 -3 -7 -3 -20z"/>
<path d="M3005 1438 c-106 -79 -215 -212 -215 -263 0 -8 5 -15 11 -15 15 0 87
75 122 128 15 23 53 58 83 78 61 41 67 49 62 89 l-3 27 -60 -44z"/>
<path d="M3130 1386 c0 -3 4 -16 9 -29 7 -19 4 -42 -14 -94 -25 -69 -32 -123
-16 -123 17 0 61 50 61 69 0 11 5 23 10 26 13 8 13 91 0 115 -10 18 -50 47
-50 36z"/>
<path d="M3377 1298 c-93 -102 -193 -190 -282 -249 -57 -37 -60 -49 -16 -49
51 1 107 38 191 126 47 49 111 115 143 147 49 50 58 64 55 90 -3 30 -4 29 -91
-65z"/>
<path d="M2525 1370 c3 -8 -15 -71 -40 -139 -25 -68 -45 -130 -43 -138 2 -11
13 -7 42 15 33 25 43 41 57 93 24 85 24 131 -1 160 -11 13 -18 17 -15 9z"/>
<path d="M3839 1303 c-128 -131 -304 -252 -368 -253 l-26 -1 30 -16 c16 -9 48
-17 70 -17 70 -1 131 37 253 160 92 93 112 119 112 143 0 16 -4 32 -8 35 -5 3
-33 -20 -63 -51z"/>
<path d="M2029 1282 c-9 -26 -32 -88 -50 -139 -19 -50 -30 -95 -26 -99 4 -4
24 6 44 23 32 25 42 43 61 109 22 79 22 123 -1 142 -9 8 -17 -3 -28 -36z"/>
<path d="M1409 1289 c-28 -30 -95 -156 -87 -164 9 -9 100 80 123 119 44 76 20
105 -36 45z"/>
<path d="M880 1273 c-14 -2 -71 -13 -128 -24 -132 -25 -228 -25 -256 -2 -14
12 -13 9 4 -10 l25 -28 -51 -151 -51 -150 30 6 c16 3 33 6 38 6 5 0 36 54 69
119 32 66 63 121 67 124 16 9 168 -16 184 -30 15 -12 20 -10 43 18 44 51 80
132 59 128 -5 -1 -19 -4 -33 -6z"/>
<path d="M2880 1133 c-30 -25 -86 -66 -123 -91 -68 -46 -73 -61 -18 -62 55 0
184 110 196 168 4 17 5 32 3 32 -2 0 -28 -21 -58 -47z"/>
<path d="M2490 1034 c-79 -58 -107 -70 -141 -61 -21 6 -21 5 2 -19 43 -45 114
-49 175 -9 21 14 27 12 87 -20 51 -26 71 -32 93 -26 26 7 22 10 -65 55 l-93
48 21 22 c19 20 20 67 2 66 -3 -1 -40 -26 -81 -56z"/>
<path d="M1940 581 c0 -43 9 -55 35 -45 12 5 15 16 13 43 -2 29 -8 37 -25 39
-21 3 -23 -1 -23 -37z"/>
<path d="M3238 393 l-78 -15 0 -164 0 -164 90 0 90 0 0 44 0 43 -50 -5 c-49
-4 -50 -4 -50 22 0 24 3 26 45 26 l45 0 0 46 0 47 -45 -5 c-41 -5 -45 -4 -45
17 0 19 7 23 50 29 l50 7 0 44 c0 30 -4 45 -12 44 -7 -1 -48 -8 -90 -16z"/>
<path d="M680 225 l0 -175 40 0 40 0 1 63 c1 62 1 62 13 27 18 -51 48 -52 68
-3 l16 38 1 -62 1 -63 40 0 40 0 0 154 0 154 -36 7 c-44 8 -47 5 -69 -62 -9
-29 -20 -55 -25 -58 -5 -3 -19 27 -32 66 -17 54 -28 73 -46 80 -53 20 -52 22
-52 -166z"/>
<path d="M2912 343 l-33 -4 3 -147 3 -147 75 3 c123 6 154 42 148 173 -3 65
-7 81 -27 103 -21 22 -32 26 -80 24 -31 0 -71 -3 -89 -5z m106 -85 c7 -7 12
-32 12 -57 0 -48 -21 -81 -52 -81 -16 0 -18 9 -18 75 0 72 1 75 23 75 13 0 28
-5 35 -12z"/>
<path d="M1015 316 c-47 -47 -45 -183 4 -238 20 -22 38 -31 71 -35 93 -10 140
38 140 143 0 101 -49 154 -143 154 -37 0 -53 -5 -72 -24z m119 -72 c33 -33 12
-124 -28 -124 -33 0 -54 67 -37 113 12 31 41 36 65 11z"/>
<path d="M1280 179 l0 -140 38 3 37 3 5 54 5 55 35 -55 c29 -45 40 -55 68 -57
l32 -3 0 130 0 131 -30 0 c-16 0 -33 1 -37 3 -5 1 -10 -23 -13 -53 l-5 -55
-34 57 c-32 51 -52 67 -88 68 -10 0 -13 -35 -13 -141z"/>
<path d="M2648 313 l-28 -4 0 -135 0 -134 40 0 40 0 0 40 c0 50 15 51 37 2 16
-32 23 -37 56 -40 42 -4 44 1 21 58 -16 38 -15 42 2 61 26 29 26 109 0 138
-16 17 -30 21 -80 20 -34 -1 -73 -4 -88 -6z m106 -79 c8 -21 -11 -44 -35 -44
-14 0 -19 7 -19 30 0 25 4 30 24 30 13 0 27 -7 30 -16z"/>
<path d="M2475 301 l-80 -6 0 -125 0 -125 90 0 90 0 3 33 3 32 -55 0 c-43 0
-56 3 -56 15 0 11 12 15 45 15 45 0 45 0 45 36 l0 36 -42 -4 c-33 -2 -43 0
-43 12 0 11 14 16 53 18 l52 3 0 35 c0 21 -5 33 -12 32 -7 -1 -49 -4 -93 -7z"/>
<path d="M1540 272 c0 -26 5 -31 30 -37 l29 -6 3 -92 3 -92 38 -3 37 -3 0 95
0 96 35 0 c32 0 35 2 35 30 0 30 0 30 -59 30 -32 0 -79 3 -105 6 l-46 7 0 -31z"/>
<path d="M1782 168 l3 -123 93 -3 92 -3 0 30 c0 29 -2 30 -52 33 -68 4 -76 26
-11 30 43 3 48 5 51 29 3 28 -15 39 -71 39 -52 0 -24 25 29 26 45 1 49 3 52
26 3 22 -1 26 -35 31 -21 4 -64 7 -96 7 l-58 0 3 -122z"/>
<path d="M2094 284 c-8 -3 4 -46 34 -124 l45 -120 38 0 c21 0 41 5 45 12 4 6
26 62 49 125 l43 113 -42 0 -42 0 -23 -71 c-12 -39 -25 -68 -28 -65 -3 2 -15
33 -28 68 -20 56 -26 63 -51 65 -16 1 -34 0 -40 -3z"/>
</g>
</svg>
